<svg version="1" xmlns="http://www.w3.org/2000/svg" width="1066.667" height="1066.667" viewBox="0 0 800.000000 800.000000"><path d="M727.7 56.7c-.5.9-2.8 10.4-2.8 11.5 0 .4-.6 2.6-1.4 4.8-.8 2.2-1.2 4-1 4 .2 0-.2 1.8-1 4s-1.2 4-1 4c.3 0 0 1.1-.5 2.5s-1.2 3.6-1.5 4.8c-.7 3.4-4.1 16.4-6.3 24.2-1.1 3.8-3.1 11.3-4.5 16.5-3 10.9-12.5 42.5-16.6 55-23 69.7-47.8 121.6-73.1 152.5-7.1 8.6-19.9 21.1-26.1 25.2-15.8 10.8-47.8 24.4-62.7 26.8-13.9 2.2-15 2.4-15.5 3.9-.3.7 2.1 7.1 5.4 14.2 3.3 7.1 6.7 14.5 7.6 16.4 8 17.6 28.8 38.4 51.8 51.9 9.1 5.4 22.9 12.1 24.9 12.1.7 0 1.6.3 2 .7.4.5 1.2.9 1.7.9.5.1 1 .2 1.2.4.1.1.9.3 1.7.5.8.1 3.5.8 6 1.5 7.5 2 8.2 2.1 18.1 2.5 15.4.6 26.4-3.2 35.6-12.2 8.4-8.3 13.6-20.9 25.7-62.9 1.5-5 2.9-10 3.1-11.2.7-3.1 1.1-4.7 3.5-13.7 1.2-4.4 2.3-8.9 2.5-10 .3-1.1.7-3.2 1.1-4.7.3-1.5.6-3.1.6-3.5 0-.5.4-1.7.8-2.9.5-1.1 1.1-3.6 1.4-5.5.8-4.6 1.4-7.7 2-9.7.3-.9.8-3.2 1.1-5 .3-1.8 1.2-6.3 1.9-10 .8-3.7 1.7-8.5 2-10.7.7-4.5 1.3-7.8 2.1-11.5.3-1.4.7-4.3 1-6.5.3-2.2.7-4.9.9-6 .4-2.4 1.6-9.9 2.1-13.5.3-2.2.9-6.2 2-14 .2-1.4.7-5 1-8 .3-3 .7-7.1 1-9 .7-6 1.5-13.3 2-19.5.3-3.3.8-8 1-10.5 3.1-33.1 4-55.9 4-103.5 0-37.9-.6-61-2-71-.1-1.1-.3-3-.4-4.3-.1-2.1-1.5-3-2.4-1.5zM113.2 89.5C100 94.9 82.7 106 63.7 121.3l-8.7 7v503.4l4.2 1.6c5.6 2 28.9 10.4 45.3 16.2 7.2 2.5 19.1 6.8 26.5 9.4 7.4 2.7 17.3 6.3 22 7.9 4.7 1.7 20.7 7.4 35.5 12.7 14.9 5.3 30.6 10.9 35 12.5 10.2 3.6 32.3 11.5 49 17.5 7.2 2.6 22.9 8.2 35 12.5 12.1 4.3 24.5 8.7 27.5 9.8 3 1.2 12 4.4 20 7.3l14.5 5.2 114.8.1c63.1.1 114.7-.2 114.7-.6 0-.5-.6-.8-1.3-.8-.7 0-7.8-2.1-15.8-4.7-7.9-2.6-14.9-4.7-15.4-4.9-1.5-.2-42.4-14-51-17.1-3.8-1.3-9.2-3.3-12-4.3-2.7-1.1-11.3-4.2-18.9-7-7.6-2.9-18.4-7-24-9.2-5.6-2.2-13.5-5.2-17.6-6.8-71.4-26.8-102.8-40.4-129.6-56.3-24.9-14.8-36.3-26.6-43.7-45.2-3.4-8.6-6.1-14.7-14.1-31.8-9.1-19.4-11.1-23.8-15.3-33.2-4.3-9.6-7.6-17.8-12.1-29.5-4.8-12.5-10.4-31.9-11.8-40.6-.3-2.1-1-5.9-1.4-8.4-.9-4.7-.6-26.7.4-31 .4-1.4.9-4.1 1.2-6 .3-1.9 1.7-7.8 3.1-13 1.4-5.2 2.7-10.3 2.9-11.3.2-1 .6-2.8 1-3.9.4-1.4.3-1.8-.5-1.3-.6.3-4.6.9-8.9 1.2-4.2.3-8.6.6-9.7.6-1.1.1-6.2-2.2-11.4-5.2-8.3-4.8-9.7-6-13.5-12-5.2-8.3-7.6-15.7-9.1-28.2-.8-6.2-1.5-11.1-2-13.9-.3-1.4-.7-3.7-1-5.2-1.2-6.5-5.8-16.7-8.8-19.6-1.8-1.6-8.8-6.7-15.7-11.2-15.1-10.1-23.9-16.8-28.8-22.2-6.7-7.2-10.3-15.5-10.9-24.8-.3-5.6-.9-7.1-4.3-11.6-9.8-13-12.3-33.2-6.3-50.9 2.6-7.6 9.4-17.6 15.4-22.6 16.5-13.9 34.7-14.2 66.6-.9 11.2 4.6 16.3 6.9 41.8 19 24.4 11.5 52.4 23.5 53.2 22.6.2-.2-3.6-3.9-8.4-8.2-4.9-4.3-9.2-8.4-9.8-9-.5-.6-8.2-7.5-17-15.4-8.8-7.8-17.3-15.4-19-16.9-2.8-2.6-18.5-15.6-25-20.7-20.5-16.2-42-29.3-55.6-33.9-8.7-2.8-12.8-2.7-21.7 1z"/><path d="M131.8 180c-3.5 2.7-5.9 9.3-5.7 15.2.4 7.3 2 8.6 10.4 8.9 7.8.3 13.5 2.4 13.5 4.9 0 .9-2.2 6.1-5 11.6-2.7 5.4-5 11-5 12.4 0 3.7 5 8.1 22 19.5 24.5 16.5 27.9 19.9 34.1 33.4 3.1 6.8 6.6 17.3 7.4 22.5.3 1.7.8 3.8 1 4.6.2.8.7 3.5 1 6 .3 2.5.8 6.1 1.1 8 .3 1.9.7 4.8.9 6.5.7 5.6 2.3 8.5 4.7 8.5 1.3 0 12.9-5.2 25.8-11.7 24.4-12.1 25.1-12.4 31.1-14.3 9.1-2.7 10.4-1.9 9.6 6.7-.7 7.4-1.1 9.3-4.3 18.9-1.4 4.3-2.7 8.3-2.8 8.9-.2.5-.6 1.7-.9 2.5-.6 1.5-8.7 26.4-12.7 39-1.1 3.6-2.2 7.4-2.4 8.5-.3 1.1-1.1 4.9-2 8.5-2.1 9.1-2.9 15.5-2.9 22.6.1 5.4.6 8.9 2.9 19.4.3 1.4.7 3.4.9 4.5.7 3.1 7.1 22.3 9.8 29.5 4.4 11.4 12.1 28.8 24.4 55 6.6 14 13.3 28.9 14.8 33 3.6 9.4 8.7 15.1 21.7 23.7 20.6 13.7 51.4 27.8 108.3 49.5 2.8 1.1 12.9 4.8 22.5 8.3 41.7 15.2 55.7 20.3 58 21.3 1.4.6 6.5 2.7 11.3 4.7 9.4 3.9 14.7 4.9 26.7 4.9 7.1 0 19.8-1.2 21.1-2 .3-.2 2-.6 3.8-.9 4.4-.8 18.3-4.6 19.6-5.3.6-.4 1.5-.7 2-.8.6-.1 4.6-1.6 9-3.4 28.7-11.4 55-30.1 63-45 3-5.7 3-5.4 2.6-23.5-.1-3.9 0-7.9.2-9.1 1.3-5.4 3.8-12.9 8-22.9 5.6-13.6 7.5-20.6 7.5-28.1 0-6.6-.9-9.7-4.6-17.1l-2.6-5.2-2.5 1.8c-3.3 2.2-14.8 6.8-20.3 8-15 3.4-33.8 3.2-47.3-.3-.5-.1-2.6-.6-4.5-1-19.7-4.3-49.5-19.5-69.5-35.4-20.8-16.6-35.1-33.8-44.5-53.9-2.8-5.9-6.1-12.6-7.3-14.8-2.7-5-5-9.9-7.2-15-7.6-17.9-19.4-33.1-40.5-52-7.2-6.5-14.4-13.6-15.9-15.9-5.8-8.4-8-20.3-5.5-29.7 2.6-10.2 6-14.4 23.9-29.9 22.7-19.6 39.9-35 40.3-35.9.5-1.5-28.8-10.2-43-12.6-15.3-2.7-21.1-3.4-41.3-5.2-11.2-1-58.9-1.1-67-.1-11 1.3-15 1.9-19 3-2.2.6-5.1 1.2-6.5 1.5-4.3.9-15.3 1-19 .2-1.9-.5-5.1-1.1-7-1.4-10-1.6-40.3-13.1-63.5-24-5.5-2.6-13.1-6.2-17-8-3.8-1.8-11.3-5.3-16.5-7.7-22.6-10.7-36.5-15.8-43-15.8-2.2 0-4.8.8-6.2 2zm205.9 205.7c6.5 3.6 16.8 9.4 22.8 12.8 6.1 3.4 20.5 11.5 32 18 11.6 6.5 24.1 13.6 28 15.7 7.1 4 9 5.7 7.7 7-2.3 2.3-31.9 11.6-42.7 13.4-1.6.3-4.6.9-6.6 1.3-4.2.9-24 .7-28.4-.3-9-2.1-19.8-11.4-24.5-21-4.1-8.4-5.7-15.6-5.8-26.8-.1-11.7 2.6-26.8 4.8-26.8.4 0 6.2 3 12.7 6.7z"/><path d="M588.2 187.9c-7.7 16.9-52.8 62.3-116.5 117.5l-19.8 17.1 3.8 3.5c2.1 1.9 7.6 6.9 12.2 11 7.5 6.7 17.9 17.8 23.7 25.2l2.1 2.7 5.1-2.5c2.7-1.3 5.9-2.7 7.1-2.9 1.2-.3 3.1-.7 4.4-1 1.2-.3 4.5-.8 7.2-1.1 10.8-1.4 25.9-6.9 41.4-15 12.2-6.4 17.4-10.4 25.5-19.4l6-6.5.2-66.8c.2-36.7.2-66.7.1-66.7s-1.2 2.2-2.5 4.9z"/></svg>